<svg width="207" height="274" viewBox="0 0 207 274" fill="none" xmlns="http://www.w3.org/2000/svg">
<g clip-path="url(#clip0)">
<path d="M175.921 133.886V218.706C178.853 217.769 182.003 217.769 184.936 218.706V133.886C184.939 132.992 184.676 132.117 184.182 131.373C183.688 130.628 182.984 130.048 182.161 129.705C181.337 129.362 180.43 129.273 179.555 129.448C178.681 129.624 177.878 130.056 177.249 130.689C176.827 131.107 176.492 131.605 176.264 132.154C176.036 132.703 175.92 133.292 175.921 133.886Z" fill="#395773"/>
<path d="M175.921 148.785H184.936V151.57H175.921V148.785Z" fill="#2A2F5B"/>
<path d="M175.921 161.222H184.936V164.008H175.921V161.222Z" fill="#2A2F5B"/>
<path d="M175.921 173.651H184.936V176.436H175.921V173.651Z" fill="#2A2F5B"/>
<path d="M175.921 186.08H184.936V188.865H175.921V186.08Z" fill="#2A2F5B"/>
<path d="M175.921 198.508H184.936V201.294H175.921V198.508Z" fill="#2A2F5B"/>
<path d="M175.921 210.937H184.936V213.722H175.921V210.937Z" fill="#2A2F5B"/>
<path d="M193.845 238.772C194.854 236.526 195.286 234.062 195.101 231.605C194.916 229.149 194.12 226.778 192.786 224.709C191.452 222.64 189.623 220.939 187.465 219.761C185.307 218.583 182.89 217.966 180.433 217.966C177.976 217.966 175.558 218.583 173.4 219.761C171.242 220.939 169.413 222.64 168.079 224.709C166.746 226.778 165.95 229.149 165.765 231.605C165.58 234.062 166.011 236.526 167.02 238.772H154.59C154.127 236.797 153.892 234.775 153.892 232.746C153.865 228.975 154.637 225.242 156.156 221.792C157.676 218.343 159.908 215.256 162.706 212.736C165.504 210.216 168.803 208.32 172.386 207.174C175.969 206.027 179.753 205.657 183.49 206.086C187.226 206.516 190.829 207.736 194.06 209.666C197.291 211.595 200.077 214.191 202.233 217.28C204.389 220.37 205.867 223.884 206.568 227.588C207.269 231.293 207.178 235.105 206.301 238.772H193.845Z" fill="#72AADE"/>
<path d="M175.615 212.154C175.614 213.111 175.895 214.047 176.424 214.844C176.954 215.64 177.706 216.261 178.588 216.628C179.469 216.995 180.439 217.092 181.376 216.906C182.312 216.719 183.172 216.259 183.847 215.582C184.521 214.905 184.981 214.043 185.167 213.104C185.352 212.166 185.256 211.193 184.89 210.309C184.524 209.425 183.905 208.67 183.11 208.14C182.316 207.609 181.383 207.327 180.428 207.328C179.153 207.331 177.93 207.84 177.028 208.744C176.126 209.649 175.618 210.875 175.615 212.154Z" fill="#4A6EB3"/>
<path d="M24.8071 67.7839V76.7616H42.277C44.5687 76.7627 46.814 77.4095 48.7569 78.6283C50.6998 79.847 52.262 81.5887 53.2655 83.6547C53.7006 84.5384 54.0205 85.4745 54.2176 86.44C54.4076 87.3028 54.5013 88.1841 54.4971 89.0677V112.629C54.4919 117.247 55.9986 121.74 58.786 125.416C59.4068 126.25 60.0932 127.032 60.8387 127.755C63.3084 130.219 66.353 132.026 69.6959 133.01C70.6056 133.285 71.5339 133.492 72.4736 133.632C73.5316 133.794 74.6003 133.876 75.6705 133.877H109.256V124.847H75.6967C73.6042 124.846 71.5471 124.306 69.7221 123.279C67.617 122.088 65.907 120.304 64.8043 118.147C64.1312 116.822 63.7049 115.386 63.5465 113.907C63.5007 113.468 63.4774 113.027 63.4766 112.585V89.0239C63.4795 88.1453 63.4241 87.2674 63.3106 86.3962C63.2005 85.459 63.0224 84.531 62.7778 83.6197C61.7767 79.7726 59.708 76.2891 56.8119 73.5734C56.0496 72.8327 55.2255 72.1587 54.3486 71.5589C50.82 69.0853 46.6173 67.7612 42.3119 67.7664L24.8071 67.7839Z" fill="#395773"/>
<path d="M79.0247 124.847H81.8024V133.825H79.0247V124.847Z" fill="#2A2F5B"/>
<path d="M69.722 123.279V132.958C70.6318 133.232 71.5601 133.44 72.4998 133.58V124.418C71.5297 124.157 70.5963 123.775 69.722 123.279Z" fill="#2A2F5B"/>
<path d="M58.8122 125.373C59.433 126.206 60.1194 126.988 60.8649 127.711L64.8043 118.147C64.1312 116.822 63.7049 115.386 63.5465 113.907L58.8122 125.373Z" fill="#2A2F5B"/>
<path d="M54.5233 112.375V112.585C54.5228 113.741 54.6162 114.895 54.8028 116.036L63.4766 107.33V103.353L54.5233 112.375Z" fill="#2A2F5B"/>
<path d="M54.5233 101.277V104.308L63.4766 100.568V97.5461L54.5233 101.277Z" fill="#2A2F5B"/>
<path d="M54.5233 92.1509H63.4766V94.9362H54.5233V92.1509Z" fill="#2A2F5B"/>
<path d="M53.2655 83.6548C53.7005 84.5385 54.0205 85.4746 54.2176 86.4401H63.2844C63.1743 85.5028 62.9962 84.5748 62.7516 83.6635L53.2655 83.6548Z" fill="#2A2F5B"/>
<path d="M41.1676 76.7618H42.3119C43.8051 76.7637 45.2854 77.0397 46.6794 77.5763L56.8119 73.5736C56.0496 72.8329 55.2255 72.1589 54.3486 71.5591L41.1676 76.7618Z" fill="#2A2F5B"/>
<path d="M28.0565 76.7617H32.1619L41.8315 67.7839H37.7435L28.0565 76.7617Z" fill="#2A2F5B"/>
<path d="M-0.0174866 85.0211C2.22122 86.0284 4.67577 86.4577 7.12237 86.27C9.56898 86.0823 11.9298 85.2836 13.9896 83.9465C16.0495 82.6094 17.7428 80.7767 18.9152 78.6152C20.0876 76.4538 20.7018 74.0325 20.7018 71.572C20.7018 69.1116 20.0876 66.6902 18.9152 64.5288C17.7428 62.3674 16.0495 60.5346 13.9896 59.1975C11.9298 57.8605 9.56898 57.0617 7.12237 56.874C4.67577 56.6863 2.22122 57.1157 -0.0174866 58.123V45.633C3.5069 44.8056 7.16287 44.7102 10.7254 45.3527C14.2879 45.9951 17.6817 47.3619 20.6977 49.3687C23.7137 51.3756 26.2883 53.9802 28.2629 57.0221C30.2375 60.0641 31.5703 63.4791 32.1794 67.0569C32.6918 70.048 32.6918 73.1048 32.1794 76.0959C31.1142 82.2892 27.9 87.9055 23.1049 91.9524C18.3097 95.9994 12.2422 98.2164 5.97466 98.2118C3.9512 98.2116 1.93455 97.9765 -0.0349579 97.5111L-0.0174866 85.0211Z" fill="#72AADE"/>
<path d="M26.5367 76.4026C23.8785 76.4026 21.7237 74.2419 21.7237 71.5766C21.7237 68.9112 23.8785 66.7505 26.5367 66.7505C29.1948 66.7505 31.3496 68.9112 31.3496 71.5766C31.3496 74.2419 29.1948 76.4026 26.5367 76.4026Z" fill="#4A6EB3"/>
<path d="M87.8732 147.427C77.7183 147.427 69.4862 139.447 69.4862 129.603C69.4862 119.759 77.7183 111.779 87.8732 111.779C98.028 111.779 106.26 119.759 106.26 129.603C106.26 139.447 98.028 147.427 87.8732 147.427Z" fill="#101544"/>
<path d="M169.981 147.427C159.827 147.427 151.594 139.447 151.594 129.603C151.594 119.759 159.827 111.779 169.981 111.779C180.136 111.779 188.368 119.759 188.368 129.603C188.368 139.447 180.136 147.427 169.981 147.427Z" fill="#101544"/>
<path d="M110.278 76.7793H147.576V107.233H110.278V76.7793Z" fill="#4A6EB3"/>
<path d="M110.278 98.0366H147.576V107.233H110.278V98.0366Z" fill="#365797"/>
<path d="M110.278 76.7793H147.576V90.6269H110.278V76.7793Z" fill="#365797"/>
<path d="M182.455 8.39087H184.839V39.8173H182.455V8.39087Z" fill="#FFF3C0"/>
<path d="M183.643 16.6066C180.218 16.6066 177.441 13.8224 177.441 10.3879C177.441 6.9534 180.218 4.16919 183.643 4.16919C187.068 4.16919 189.845 6.9534 189.845 10.3879C189.845 13.8224 187.068 16.6066 183.643 16.6066Z" fill="#F6A747"/>
<path d="M73.0151 8.39087H75.3997V39.8173H73.0151V8.39087Z" fill="#FFF3C0"/>
<path d="M68.01 10.3878C68.01 11.617 68.3733 12.8186 69.054 13.8409C69.7347 14.8631 70.7022 15.6602 71.8344 16.1314C72.9666 16.6026 74.2127 16.7268 75.4153 16.4882C76.6178 16.2497 77.7229 15.6592 78.5909 14.7912C79.459 13.9233 80.051 12.8168 80.2923 11.6117C80.5335 10.4065 80.4132 9.15669 79.9465 8.02007C79.4798 6.88345 78.6876 5.91101 77.67 5.22559C76.6524 4.54017 75.4551 4.17251 74.2292 4.16904C73.4127 4.16442 72.6033 4.32198 71.8478 4.63264C71.0923 4.9433 70.4057 5.40092 69.8275 5.97907C69.2493 6.55722 68.791 7.24447 68.479 8.00116C68.1671 8.75784 68.0077 9.56898 68.01 10.3878Z" fill="#F6A747"/>
<path d="M65.3197 41.35V65.4629C65.3197 66.3922 65.5022 67.3125 65.8569 68.1711C66.2116 69.0298 66.7315 69.8099 67.3869 70.4671C68.0422 71.1243 68.8203 71.6456 69.6766 72.0012C70.5329 72.3569 71.4506 72.5399 72.3775 72.5399H86.3533V34.2729H72.3775C71.4506 34.2729 70.5329 34.456 69.6766 34.8117C68.8203 35.1673 68.0422 35.6886 67.3869 36.3458C66.7315 37.0029 66.2116 37.7831 65.8569 38.6417C65.5022 39.5004 65.3197 40.4206 65.3197 41.35Z" fill="#4A6EB3"/>
<path d="M171.519 34.2729V72.5399H185.495C187.366 72.5399 189.162 71.7943 190.485 70.4671C191.809 69.1399 192.552 67.3398 192.552 65.4629V41.35C192.552 39.4731 191.809 37.673 190.485 36.3458C189.162 35.0186 187.366 34.2729 185.495 34.2729H171.519Z" fill="#4A6EB3"/>
<path d="M181.992 34.2729H171.51V72.5399H184.839C185.121 71.355 185.262 70.1407 185.259 68.9226V51.6766C185.265 45.7215 184.157 39.8182 181.992 34.2729Z" fill="#365797"/>
<path d="M72.5871 51.6766V68.9226C72.5839 70.1407 72.7247 71.355 73.0064 72.5399H86.3271V34.2729H75.8453C73.6833 39.8188 72.5781 45.7221 72.5871 51.6766Z" fill="#365797"/>
<path d="M107.579 206.304V252.594C107.579 258.271 109.828 263.716 113.832 267.73C117.835 271.745 123.265 274 128.927 274C134.589 274 140.019 271.745 144.023 267.73C148.026 263.716 150.275 258.271 150.275 252.594V206.304C150.275 200.626 148.026 195.181 144.023 191.167C140.019 187.153 134.589 184.897 128.927 184.897C123.265 184.897 117.835 187.153 113.832 191.167C109.828 195.181 107.579 200.626 107.579 206.304Z" fill="#101544"/>
<path d="M107.579 206.663H150.275V234.717H107.579V206.663Z" fill="#030837"/>
<path d="M111.789 243.607H143.436C143.853 243.607 144.253 243.773 144.548 244.069C144.843 244.365 145.008 244.766 145.008 245.184C145.008 245.602 144.843 246.003 144.548 246.299C144.253 246.594 143.853 246.76 143.436 246.76H111.789C111.372 246.76 110.973 246.594 110.678 246.299C110.383 246.003 110.217 245.602 110.217 245.184C110.217 244.766 110.383 244.365 110.678 244.069C110.973 243.773 111.372 243.607 111.789 243.607Z" fill="#030837"/>
<path d="M113.362 250.789H141.881C142.27 250.83 142.629 251.014 142.89 251.305C143.152 251.596 143.296 251.974 143.296 252.366C143.296 252.758 143.152 253.135 142.89 253.426C142.629 253.718 142.27 253.901 141.881 253.942H113.362C112.973 253.901 112.614 253.718 112.352 253.426C112.091 253.135 111.947 252.758 111.947 252.366C111.947 251.974 112.091 251.596 112.352 251.305C112.614 251.014 112.973 250.83 113.362 250.789Z" fill="#030837"/>
<path d="M115.938 257.971H139.313C139.951 257.971 140.475 258.681 140.475 259.548C140.475 260.415 139.951 261.125 139.313 261.125H115.938C115.301 261.125 114.777 260.415 114.777 259.548C114.777 258.681 115.283 257.971 115.938 257.971Z" fill="#030837"/>
<path d="M91.1313 210.7L92.0834 214.589L94.3196 223.716C94.7184 225.352 95.653 226.806 96.9738 227.846C98.2945 228.886 99.9251 229.452 101.604 229.453H156.268C157.948 229.454 159.581 228.889 160.904 227.849C162.226 226.809 163.162 225.353 163.561 223.716L165.771 214.589L166.723 210.692C166.992 209.584 167.006 208.43 166.765 207.317C166.524 206.203 166.033 205.159 165.331 204.263C164.629 203.368 163.732 202.643 162.71 202.146C161.688 201.648 160.566 201.389 159.43 201.39H98.4163C97.2791 201.389 96.1565 201.647 95.1336 202.145C94.1108 202.644 93.2144 203.369 92.5124 204.266C91.8105 205.163 91.3214 206.209 91.0821 207.324C90.8428 208.438 90.8596 209.593 91.1313 210.7Z" fill="#4A6EB3"/>
<path d="M91.1313 210.7L92.0834 214.589C92.6615 214.678 93.2456 214.722 93.8304 214.721H164.033C164.618 214.722 165.202 214.678 165.78 214.589L166.732 210.692C167.001 209.584 167.015 208.43 166.774 207.317C166.532 206.203 166.042 205.159 165.34 204.263C164.637 203.368 163.741 202.643 162.719 202.146C161.697 201.648 160.575 201.389 159.438 201.39H98.425C97.287 201.387 96.1635 201.645 95.1395 202.143C94.1156 202.64 93.2181 203.365 92.5151 204.263C91.8122 205.16 91.3223 206.206 91.0825 207.322C90.8428 208.437 90.8594 209.592 91.1313 210.7Z" fill="#365797"/>
<path d="M101.674 101.715H156.172C167.026 101.715 175.825 110.539 175.825 121.423V191.869C175.825 202.753 167.026 211.576 156.172 211.576H101.674C90.82 211.576 82.0208 202.753 82.0208 191.869V121.423C82.0208 110.539 90.82 101.715 101.674 101.715Z" fill="#72AADE"/>
<path d="M128.927 0C142.595 0 155.704 5.44449 165.369 15.1357C175.034 24.827 180.463 37.9711 180.463 51.6766V68.9226C180.467 71.1446 180.033 73.3455 179.186 75.3991C178.34 77.4526 177.098 79.3185 175.531 80.8897C173.964 82.4609 172.103 83.7066 170.055 84.5554C168.007 85.4041 165.812 85.8392 163.596 85.8358H94.2584C89.7919 85.8358 85.5084 84.0566 82.3501 80.8897C79.1918 77.7228 77.4175 73.4276 77.4175 68.9489V51.6766C77.4175 37.9757 82.8436 24.8355 92.5028 15.145C102.162 5.45453 115.264 0.00696658 128.927 0V0Z" fill="#72AADE"/>
<path d="M108.007 23.8938H149.839C159.714 23.8938 167.719 31.921 167.719 41.823V41.8317C167.719 51.7337 159.714 59.7609 149.839 59.7609H108.007C98.1321 59.7609 90.1268 51.7337 90.1268 41.8317V41.823C90.1268 31.921 98.1321 23.8938 108.007 23.8938Z" fill="#DAE1FB"/>
<path d="M140.326 38.705C142.041 37.4988 144.093 36.8672 146.187 36.9007C147.07 36.9018 147.949 37.0047 148.808 37.2072C150.04 37.4617 151.2 37.9864 152.206 38.7435C153.212 39.5007 154.038 40.4716 154.625 41.5866C154.861 42.0459 154.975 42.5585 154.956 43.0747C154.936 43.591 154.784 44.0935 154.515 44.5337C154.245 44.974 153.867 45.3371 153.417 45.588C152.966 45.8389 152.459 45.9691 151.944 45.966C151.387 45.9699 150.84 45.8167 150.366 45.524C149.892 45.2313 149.509 44.8108 149.262 44.3106C149.047 43.9959 148.772 43.7272 148.452 43.5197C148.133 43.3123 147.776 43.1702 147.402 43.1019C147.015 42.9917 146.616 42.93 146.214 42.9179C145.391 42.8894 144.578 43.1091 143.881 43.5486C143.686 43.7022 143.53 43.9004 143.427 44.1266C143.092 44.8302 142.498 45.3762 141.77 45.6498C141.042 45.9233 140.236 45.9032 139.523 45.5936C138.809 45.284 138.243 44.709 137.943 43.9895C137.643 43.2701 137.634 42.4621 137.916 41.7355C138.439 40.53 139.271 39.4846 140.326 38.705Z" fill="#030A23"/>
<path d="M103.142 41.7443C103.664 40.5356 104.496 39.487 105.553 38.705C107.268 37.4988 109.319 36.8672 111.414 36.9007C112.296 36.9018 113.175 37.0047 114.034 37.2072C115.265 37.4635 116.425 37.9888 117.431 38.7457C118.436 39.5027 119.263 40.4727 119.852 41.5866C120.029 41.9403 120.135 42.3255 120.164 42.7203C120.193 43.1151 120.144 43.5118 120.02 43.8876C119.896 44.2634 119.699 44.611 119.441 44.9105C119.183 45.21 118.868 45.4556 118.515 45.6331C118.097 45.8413 117.637 45.9492 117.17 45.9485C116.613 45.9524 116.067 45.7992 115.592 45.5065C115.118 45.2138 114.736 44.7933 114.488 44.2931C114.065 43.6587 113.409 43.2178 112.663 43.0668C112.263 42.9656 111.852 42.9156 111.44 42.9179C110.617 42.8894 109.805 43.1091 109.108 43.5486C108.911 43.7001 108.754 43.8989 108.654 44.1266C108.422 44.6682 108.037 45.1297 107.547 45.4536C107.056 45.7776 106.481 45.9496 105.893 45.9485C105.484 45.947 105.08 45.8605 104.705 45.6945C103.977 45.3769 103.404 44.7831 103.111 44.0429C102.818 43.3027 102.829 42.4762 103.142 41.7443Z" fill="#030A23"/>
<path d="M111.178 116.08H146.677C157.029 116.08 165.422 124.495 165.422 134.876V159.97C165.422 170.351 157.029 178.766 146.677 178.766H111.178C100.825 178.766 92.4328 170.351 92.4328 159.97V134.876C92.4328 124.495 100.825 116.08 111.178 116.08Z" fill="#101544"/>
</g>
<defs>
<clipPath id="clip0">
<rect width="207" height="274" fill="white" transform="matrix(-1 0 0 1 207 0)"/>
</clipPath>
</defs>
</svg>
